<svg width="21" height="20" viewBox="0 0 21 20" fill="none" xmlns="http://www.w3.org/2000/svg">
<g clip-path="url(#clip0_1856_116657)">
<g clip-path="url(#clip1_1856_116657)">
<path d="M10.8008 0H9.55078V2.5H10.8008V0Z" fill="#222222"/>
<path d="M10.8008 17.5H9.55078V20H10.8008V17.5Z" fill="#222222"/>
<path d="M20.1758 9.375H17.6758V10.625H20.1758V9.375Z" fill="#222222"/>
<path d="M2.67578 9.375H0.175781V10.625H2.67578V9.375Z" fill="#222222"/>
<path d="M15.9132 14.8573L15.0293 15.7412L16.7971 17.509L17.6809 16.6251L15.9132 14.8573Z" fill="#222222"/>
<path d="M3.54795 2.49112L2.66406 3.375L4.43183 5.14277L5.31571 4.25888L3.54795 2.49112Z" fill="#222222"/>
<path d="M16.801 2.4959L15.0332 4.26367L15.9171 5.14756L17.6849 3.37979L16.801 2.4959Z" fill="#222222"/>
<path d="M4.42597 14.8524L2.6582 16.6201L3.54209 17.504L5.30985 15.7362L4.42597 14.8524Z" fill="#222222"/>
<path d="M10.1764 4.58301C7.18477 4.58301 4.75977 7.00801 4.75977 9.99967C4.75977 12.9913 7.18477 15.4163 10.1764 15.4163C13.1681 15.4163 15.5931 12.9913 15.5931 9.99967C15.5931 7.00801 13.1681 4.58301 10.1764 4.58301ZM10.1764 14.1663C7.87643 14.1663 6.00977 12.2997 6.00977 9.99967C6.00977 7.69967 7.87643 5.83301 10.1764 5.83301C12.4764 5.83301 14.3431 7.69967 14.3431 9.99967C14.3431 12.2997 12.4764 14.1663 10.1764 14.1663Z" fill="#222222"/>
</g>
</g>
<defs>
<clipPath id="clip0_1856_116657">
<rect width="20" height="20" fill="white" transform="translate(0.175781)"/>
</clipPath>
<clipPath id="clip1_1856_116657">
<rect width="20" height="20" fill="white" transform="translate(0.175781)"/>
</clipPath>
</defs>
</svg>
