<svg width="40" height="40" viewBox="0 0 40 40" fill="none" xmlns="http://www.w3.org/2000/svg">
<path d="M10.9751 18V12.564C10.9751 12.404 10.9751 12.24 10.9751 12.072C10.9831 11.896 10.9911 11.712 10.9991 11.52C10.7271 11.784 10.4151 12.012 10.0631 12.204C9.71906 12.388 9.36306 12.52 8.99506 12.6L8.75506 11.484C8.92306 11.46 9.11906 11.404 9.34306 11.316C9.56706 11.228 9.79906 11.116 10.0391 10.98C10.2791 10.844 10.4991 10.7 10.6991 10.548C10.8991 10.388 11.0551 10.232 11.1671 10.08H12.2471V18H10.9751ZM17.1352 18.12C16.1832 18.12 15.4352 17.776 14.8912 17.088C14.3552 16.392 14.0872 15.376 14.0872 14.04C14.0872 12.704 14.3552 11.692 14.8912 11.004C15.4352 10.308 16.1832 9.96 17.1352 9.96C18.0952 9.96 18.8432 10.308 19.3792 11.004C19.9232 11.692 20.1952 12.704 20.1952 14.04C20.1952 15.376 19.9232 16.392 19.3792 17.088C18.8432 17.776 18.0952 18.12 17.1352 18.12ZM17.1352 17.028C17.5192 17.028 17.8392 16.92 18.0952 16.704C18.3592 16.48 18.5552 16.148 18.6832 15.708C18.8192 15.26 18.8872 14.704 18.8872 14.04C18.8872 13.376 18.8192 12.824 18.6832 12.384C18.5552 11.936 18.3592 11.604 18.0952 11.388C17.8392 11.164 17.5192 11.052 17.1352 11.052C16.7512 11.052 16.4272 11.164 16.1632 11.388C15.9072 11.604 15.7152 11.936 15.5872 12.384C15.4592 12.824 15.3952 13.376 15.3952 14.04C15.3952 14.704 15.4592 15.26 15.5872 15.708C15.7152 16.148 15.9072 16.48 16.1632 16.704C16.4272 16.92 16.7512 17.028 17.1352 17.028ZM23.0383 18L28.2223 10.08H29.3263L24.1543 18H23.0383ZM23.3503 9.96C23.7583 9.96 24.1103 10.052 24.4063 10.236C24.7103 10.42 24.9423 10.676 25.1023 11.004C25.2703 11.332 25.3543 11.72 25.3543 12.168C25.3543 12.608 25.2703 12.996 25.1023 13.332C24.9423 13.66 24.7103 13.916 24.4063 14.1C24.1103 14.284 23.7583 14.376 23.3503 14.376C22.9503 14.376 22.5983 14.284 22.2943 14.1C21.9903 13.916 21.7543 13.66 21.5863 13.332C21.4263 12.996 21.3463 12.608 21.3463 12.168C21.3463 11.72 21.4263 11.332 21.5863 11.004C21.7543 10.676 21.9903 10.42 22.2943 10.236C22.5983 10.052 22.9503 9.96 23.3503 9.96ZM23.3503 10.896C23.1503 10.896 22.9783 10.948 22.8343 11.052C22.6903 11.148 22.5823 11.292 22.5103 11.484C22.4383 11.668 22.4023 11.896 22.4023 12.168C22.4023 12.432 22.4383 12.66 22.5103 12.852C22.5823 13.044 22.6903 13.188 22.8343 13.284C22.9783 13.38 23.1503 13.428 23.3503 13.428C23.5583 13.428 23.7343 13.38 23.8783 13.284C24.0223 13.188 24.1303 13.044 24.2023 12.852C24.2743 12.66 24.3103 12.432 24.3103 12.168C24.3103 11.896 24.2743 11.668 24.2023 11.484C24.1303 11.292 24.0223 11.148 23.8783 11.052C23.7343 10.948 23.5583 10.896 23.3503 10.896ZM29.0143 13.704C29.4223 13.704 29.7743 13.796 30.0703 13.98C30.3743 14.164 30.6063 14.424 30.7663 14.76C30.9343 15.088 31.0183 15.472 31.0183 15.912C31.0183 16.36 30.9343 16.748 30.7663 17.076C30.6063 17.404 30.3743 17.66 30.0703 17.844C29.7743 18.028 29.4223 18.12 29.0143 18.12C28.6143 18.12 28.2623 18.028 27.9583 17.844C27.6543 17.66 27.4183 17.404 27.2503 17.076C27.0903 16.748 27.0103 16.36 27.0103 15.912C27.0103 15.472 27.0903 15.088 27.2503 14.76C27.4183 14.424 27.6543 14.164 27.9583 13.98C28.2623 13.796 28.6143 13.704 29.0143 13.704ZM29.0143 14.652C28.8143 14.652 28.6423 14.7 28.4983 14.796C28.3543 14.892 28.2463 15.036 28.1743 15.228C28.1023 15.412 28.0663 15.64 28.0663 15.912C28.0663 16.176 28.1023 16.404 28.1743 16.596C28.2463 16.788 28.3543 16.936 28.4983 17.04C28.6423 17.136 28.8143 17.184 29.0143 17.184C29.2223 17.184 29.3983 17.136 29.5423 17.04C29.6863 16.936 29.7943 16.788 29.8663 16.596C29.9383 16.404 29.9743 16.176 29.9743 15.912C29.9743 15.648 29.9383 15.42 29.8663 15.228C29.7943 15.036 29.6863 14.892 29.5423 14.796C29.3983 14.7 29.2223 14.652 29.0143 14.652ZM12.6574 21.96C13.4254 21.96 14.0894 22.124 14.6494 22.452C15.2094 22.78 15.6414 23.248 15.9454 23.856C16.2494 24.464 16.4014 25.192 16.4014 26.04C16.4014 26.888 16.2494 27.616 15.9454 28.224C15.6414 28.832 15.2094 29.3 14.6494 29.628C14.0894 29.956 13.4254 30.12 12.6574 30.12C11.8974 30.12 11.2374 29.956 10.6774 29.628C10.1174 29.3 9.68536 28.832 9.38136 28.224C9.07736 27.616 8.92536 26.888 8.92536 26.04C8.92536 25.192 9.07736 24.464 9.38136 23.856C9.68536 23.248 10.1174 22.78 10.6774 22.452C11.2374 22.124 11.8974 21.96 12.6574 21.96ZM12.6574 23.076C12.1614 23.076 11.7334 23.192 11.3734 23.424C11.0214 23.656 10.7494 23.992 10.5574 24.432C10.3654 24.872 10.2694 25.408 10.2694 26.04C10.2694 26.664 10.3654 27.2 10.5574 27.648C10.7494 28.088 11.0214 28.424 11.3734 28.656C11.7334 28.888 12.1614 29.004 12.6574 29.004C13.1614 29.004 13.5894 28.888 13.9414 28.656C14.3014 28.424 14.5774 28.088 14.7694 27.648C14.9614 27.2 15.0574 26.664 15.0574 26.04C15.0574 25.408 14.9614 24.872 14.7694 24.432C14.5774 23.992 14.3014 23.656 13.9414 23.424C13.5894 23.192 13.1614 23.076 12.6574 23.076ZM24.0348 23.184H19.5948V25.488H23.0748V26.592H19.5948V30H18.3108V22.08H24.0348V23.184ZM31.3707 23.184H26.9307V25.488H30.4107V26.592H26.9307V30H25.6467V22.08H31.3707V23.184Z" fill="#222222"/>
<rect x="0.5" y="0.5" width="39" height="39" rx="19.5" stroke="#222222"/>
</svg>
