<svg width="21" height="20" viewBox="0 0 21 20" fill="none" xmlns="http://www.w3.org/2000/svg">
<g clip-path="url(#clip0_1856_116669)">
<path d="M6.35013 3.31654C5.85013 4.39987 5.5918 5.5832 5.5918 6.7832C5.5918 11.3749 9.33346 15.1165 13.9251 15.1165C15.1251 15.1165 16.3085 14.8582 17.3918 14.3582C15.9168 16.3915 13.5501 17.6165 11.0085 17.6165C6.6418 17.6165 3.0918 14.0665 3.0918 9.69987C3.0918 7.1582 4.3168 4.79154 6.35013 3.31654M6.62513 1.66654C3.78346 3.21654 1.8418 6.22487 1.8418 9.69987C1.8418 14.7665 5.9418 18.8665 11.0085 18.8665C14.4835 18.8665 17.4918 16.9249 19.0418 14.0749L17.7168 12.7499C16.6168 13.4499 15.3168 13.8582 13.9251 13.8582C10.0168 13.8582 6.8418 10.6832 6.8418 6.77487C6.8418 5.37487 7.25013 4.07487 7.95013 2.9832L6.62513 1.6582V1.66654Z" fill="#222222"/>
</g>
<defs>
<clipPath id="clip0_1856_116669">
<rect width="17.2" height="17.2" fill="white" transform="translate(1.8418 1.66699)"/>
</clipPath>
</defs>
</svg>
